<svg xmlns="http://www.w3.org/2000/svg" xmlns:xlink="http://www.w3.org/1999/xlink">
    <defs>
        <symbol id="globe" viewBox="0 0 64 64">
            <path fill-rule="evenodd" d="M32 6.615C17.98 6.615 6.615 17.98 6.615 32 6.615 46.02 17.98 57.385 32 57.385c14.02 0 25.385-11.365 25.385-25.385C57.385 17.98 46.02 6.615 32 6.615ZM2 32C2 15.431 15.431 2 32 2c16.569 0 30 13.431 30 30 0 16.569-13.431 30-30 30C15.431 62 2 48.569 2 32Z" clip-rule="evenodd"/>
            <path fill-rule="evenodd" d="M20.61 28.012A53.118 53.118 0 0 0 20.462 32c0 3.765.391 7.318 1.083 10.51A53.349 53.349 0 0 0 32 43.539h.004a52.825 52.825 0 0 0 10.451-1.028c.692-3.193 1.084-6.746 1.084-10.511 0-1.36-.051-2.69-.15-3.988A39.08 39.08 0 0 1 32 29.692a39.22 39.22 0 0 1-11.389-1.68Zm-4.486-1.667A57.236 57.236 0 0 0 15.846 32c0 3.224.265 6.344.762 9.273A52.757 52.757 0 0 1 6.3 36.914a2.308 2.308 0 0 0-2.238 4.037 57.343 57.343 0 0 0 13.697 5.432c.65 2.269 1.452 4.363 2.386 6.23C22.774 57.869 26.832 62 32 62c5.169 0 9.226-4.13 11.855-9.387.933-1.867 1.736-3.961 2.386-6.23a57.442 57.442 0 0 0 13.697-5.432 2.308 2.308 0 0 0-2.238-4.037 52.822 52.822 0 0 1-10.307 4.358c.496-2.929.761-6.048.761-9.272 0-1.928-.095-3.819-.277-5.654a39.077 39.077 0 0 0 9.766-6.195 2.308 2.308 0 0 0-3.021-3.49 34.46 34.46 0 0 1-7.437 4.917c-.738-3.817-1.875-7.28-3.33-10.19C41.226 6.13 37.169 2 32 2c-5.168 0-9.226 4.13-11.854 9.387-1.456 2.91-2.592 6.374-3.33 10.19a34.66 34.66 0 0 1-7.439-4.917 2.308 2.308 0 0 0-3.018 3.492 39.252 39.252 0 0 0 9.765 6.193Zm5.059-2.992A34.58 34.58 0 0 0 32 25.077h.004a34.463 34.463 0 0 0 10.814-1.724c-.659-3.813-1.735-7.188-3.091-9.902C37.343 8.685 34.478 6.615 32 6.615c-2.478 0-5.343 2.07-7.726 6.836-1.357 2.714-2.433 6.09-3.091 9.902Zm19.865 24.098a57.438 57.438 0 0 1-9.05.703c-3.077 0-6.098-.241-9.046-.706a29.164 29.164 0 0 0 1.322 3.1c2.383 4.767 5.248 6.837 7.726 6.837 2.478 0 5.343-2.07 7.727-6.836.477-.954.919-1.99 1.32-3.098Z" clip-rule="evenodd"/>
        </symbol>
        <symbol id="artstation" viewBox="0 0 64 64">
            <path d="m2.234 46.227 5.04 8.707a6.024 6.024 0 0 0 5.378 3.316h33.446L39.16 46.227H2.234Zm58.57-3.211L41.329 8.949a6.023 6.023 0 0 0-5.32-3.199h-10.36l30.153 52.453 4.77-8.262c.222-.375 2.46-3.48.234-6.925Zm-26.577-5.332L20.69 14.246 7.156 37.684h27.07Z"/>
        </symbol>
        <symbol id="bluesky" viewBox="0 0 64 64">
            <path d="M44.48 35.698c-.345-.042-.699-.084-1.042-.136.354.042.697.094 1.041.136ZM32 28.656c-2.719-5.281-10.115-15.125-16.99-19.98C8.417 4.022 5.906 4.824 4.25 5.574 2.344 6.437 2 9.364 2 11.083c0 1.719.948 14.125 1.563 16.198 2.03 6.844 9.28 9.156 15.958 8.406.344-.052.687-.093 1.041-.145-.343.052-.687.104-1.041.145-9.781 1.459-18.469 5.021-7.073 17.698C24.979 66.365 29.615 50.604 32 42.615c2.385 7.989 5.125 23.176 19.333 10.77C62 42.615 54.26 37.135 44.48 35.687c-.344-.041-.698-.083-1.041-.135.354.042.697.094 1.041.135 6.677.74 13.917-1.573 15.959-8.406C61.051 25.208 62 12.812 62 11.083c0-1.729-.344-4.656-2.25-5.51-1.646-.74-4.167-1.552-10.75 3.104-6.885 4.854-14.281 14.698-17 19.98Z"/>
        </symbol>
        <symbol id="flickr" viewBox="0 0 64 64">
            <path d="M3 32.059c0 7.218 5.84 13.058 13.059 13.058 7.218 0 13.058-5.84 13.058-13.058C29.117 24.84 23.277 19 16.06 19 8.84 19 3 24.84 3 32.059ZM35.698 32.059c0 7.218 5.84 13.058 13.059 13.058 7.218 0 13.058-5.84 13.058-13.058C61.815 24.84 55.975 19 48.757 19c-7.219 0-13.06 5.84-13.06 13.059Z"/>
        </symbol>
        <symbol id="instagram" viewBox="0 0 64 64">
            <path d="M32.262 18.523a13.444 13.444 0 0 0-13.465 13.465 13.443 13.443 0 0 0 13.465 13.465 13.444 13.444 0 0 0 13.465-13.465 13.444 13.444 0 0 0-13.465-13.465Zm0 22.22c-4.817 0-8.754-3.927-8.754-8.755 0-4.828 3.926-8.754 8.754-8.754 4.828 0 8.754 3.926 8.754 8.754 0 4.828-3.938 8.754-8.754 8.754Zm17.156-22.77a3.133 3.133 0 0 1-3.14 3.14 3.133 3.133 0 0 1-3.141-3.14 3.14 3.14 0 0 1 6.281 0Zm8.918 3.187c-.2-4.207-1.16-7.933-4.242-11.004-3.07-3.07-6.797-4.031-11.004-4.242-4.336-.246-17.332-.246-21.668 0-4.195.2-7.922 1.16-11.004 4.23-3.082 3.07-4.031 6.797-4.242 11.004-.246 4.336-.246 17.332 0 21.668.199 4.207 1.16 7.934 4.242 11.004 3.082 3.07 6.797 4.032 11.004 4.242 4.336.247 17.332.247 21.668 0 4.207-.199 7.933-1.16 11.004-4.242 3.07-3.07 4.031-6.797 4.242-11.004.246-4.336.246-17.32 0-21.656ZM52.734 47.47a8.862 8.862 0 0 1-4.992 4.992c-3.457 1.371-11.66 1.055-15.48 1.055-3.82 0-12.035.304-15.48-1.055a8.862 8.862 0 0 1-4.993-4.992c-1.371-3.457-1.055-11.66-1.055-15.48 0-3.821-.304-12.036 1.055-15.481a8.863 8.863 0 0 1 4.992-4.992c3.457-1.371 11.66-1.055 15.48-1.055 3.821 0 12.036-.305 15.481 1.055a8.863 8.863 0 0 1 4.992 4.992c1.371 3.457 1.055 11.66 1.055 15.48 0 3.82.316 12.035-1.055 15.48Z"/>
        </symbol>
        <symbol id="picashot" viewBox="0 0 64 64">
            <path d="M44.48 35.698c-.345-.042-.699-.084-1.042-.136.354.042.697.094 1.041.136ZM32 28.656c-2.719-5.281-10.115-15.125-16.99-19.98C8.417 4.022 5.906 4.824 4.25 5.574 2.344 6.437 2 9.364 2 11.083c0 1.719.948 14.125 1.563 16.198 2.03 6.844 9.28 9.156 15.958 8.406.344-.052.687-.093 1.041-.145-.343.052-.687.104-1.041.145-9.781 1.459-18.469 5.021-7.073 17.698C24.979 66.365 29.615 50.604 32 42.615c2.385 7.989 5.125 23.176 19.333 10.77C62 42.615 54.26 37.135 44.48 35.687c-.344-.041-.698-.083-1.041-.135.354.042.697.094 1.041.135 6.677.74 13.917-1.573 15.959-8.406C61.051 25.208 62 12.812 62 11.083c0-1.729-.344-4.656-2.25-5.51-1.646-.74-4.167-1.552-10.75 3.104-6.885 4.854-14.281 14.698-17 19.98Z"/>
            <path fill-rule="evenodd" d="M32.004 22.094c-5.471 0-9.906 4.435-9.906 9.905 0 5.471 4.435 9.906 9.906 9.906 5.47 0 9.905-4.435 9.905-9.905 0-5.471-4.435-9.906-9.905-9.906Zm-4.246 9.905a4.245 4.245 0 1 1 8.49 0 4.245 4.245 0 0 1-8.49 0Z" clip-rule="evenodd"/>
        </symbol>
        <symbol id="steam" viewBox="0 0 64 64">
            <path d="M61.125 32c0 16.055-13.031 29.063-29.11 29.063-13.335 0-24.562-8.942-28.007-21.141l11.156 4.605c.75 3.762 4.09 6.61 8.074 6.61a8.235 8.235 0 0 0 8.227-8.614l9.902-7.054c6.106.152 11.227-4.793 11.227-10.957 0-6.047-4.922-10.957-10.98-10.957-6.06 0-10.981 4.922-10.981 10.957v.14l-6.938 10.043a8.205 8.205 0 0 0-5.097 1.418L3 29.668c1.195-14.965 13.723-26.73 29.016-26.73 16.078 0 29.109 13.007 29.109 29.062ZM21.246 47.035l-3.574-1.476a6.187 6.187 0 0 0 3.187 3.023c3.153 1.313 6.774-.188 8.086-3.328.633-1.523.645-3.2.012-4.723a6.161 6.161 0 0 0-3.34-3.351 6.137 6.137 0 0 0-4.558-.07l3.691 1.523a4.532 4.532 0 0 1 2.45 5.941 4.555 4.555 0 0 1-5.954 2.461Zm20.367-15.222c-4.031 0-7.312-3.282-7.312-7.301 0-4.02 3.281-7.301 7.312-7.301 4.032 0 7.313 3.281 7.313 7.3 0 4.02-3.27 7.302-7.313 7.302Zm.012-1.829c3.035 0 5.496-2.46 5.496-5.484a5.486 5.486 0 0 0-5.496-5.484c-3.035 0-5.496 2.46-5.496 5.484.012 3.023 2.473 5.484 5.496 5.484Z"/>
        </symbol>
        <symbol id="tumblr" viewBox="0 0 64 64">
            <path d="M49.305 58.285C47.71 59.985 43.445 62 37.89 62c-14.157 0-17.227-10.406-17.227-16.477V28.648h-5.566a1.175 1.175 0 0 1-1.172-1.171v-7.97c0-.843.527-1.593 1.324-1.874 7.266-2.555 9.55-8.906 9.879-13.723.094-1.289.762-1.91 1.887-1.91h8.308c.645 0 1.172.527 1.172 1.172v13.5h9.727c.644 0 1.172.515 1.172 1.16v9.574c0 .645-.528 1.172-1.172 1.172h-9.774v15.61c0 4.007 2.778 6.28 7.969 4.195.563-.223 1.055-.375 1.488-.258.41.105.68.398.867.926l2.579 7.535c.21.586.386 1.242-.047 1.7Z"/>
        </symbol>
        <symbol id="twitter" viewBox="0 0 64 64">
            <path d="M55.836 19.777c.035.528.035 1.067.035 1.594 0 16.254-12.375 34.992-34.992 34.992-6.973 0-13.442-2.015-18.879-5.52a24.74 24.74 0 0 0 2.965.153c5.754 0 11.039-1.945 15.27-5.25-5.403-.117-9.938-3.656-11.497-8.531.762.117 1.524.187 2.32.187 1.102 0 2.204-.152 3.235-.422a12.29 12.29 0 0 1-9.855-12.07v-.152a12.31 12.31 0 0 0 5.554 1.558 12.273 12.273 0 0 1-5.484-10.242c0-2.285.61-4.383 1.676-6.21A34.933 34.933 0 0 0 31.543 22.73a14.062 14.062 0 0 1-.305-2.812c0-6.773 5.485-12.293 12.293-12.293a12.31 12.31 0 0 1 8.989 3.879 24.096 24.096 0 0 0 7.804-2.965c-.914 2.86-2.86 5.25-5.402 6.774 2.473-.27 4.875-.95 7.078-1.899a26.708 26.708 0 0 1-6.164 6.363Z"/>
        </symbol>
        <symbol id="youtube" viewBox="0 0 64 64">
            <path d="M59.26 17.927a7.14 7.14 0 0 0-5.03-5.062C49.791 11.667 32 11.667 32 11.667s-17.792 0-22.23 1.198a7.14 7.14 0 0 0-5.03 5.062c-1.188 4.469-1.188 13.781-1.188 13.781s0 9.313 1.188 13.782c.656 2.468 2.583 4.322 5.03 4.979C14.209 51.667 32 51.667 32 51.667s17.792 0 22.23-1.198c2.447-.657 4.374-2.521 5.03-4.98 1.188-4.468 1.188-13.78 1.188-13.78s0-9.313-1.188-13.782Zm-33.072 22.24V23.25l14.864 8.458-14.864 8.459Z"/>
        </symbol>
    </defs>
</svg>
